<mxfile host="app.diagrams.net" modified="2024-06-16T12:21:53.475Z" agent="Mozilla/5.0 (Windows NT 10.0; Win64; x64) AppleWebKit/537.36 (KHTML, like Gecko) Chrome/126.0.0.0 Safari/537.36" etag="QlKt2b9439vE0KfIZO-s" version="24.5.2" type="github">
  <diagram id="C5RBs43oDa-KdzZeNtuy" name="Page-1">
    <mxGraphModel dx="1195" dy="650" grid="1" gridSize="10" guides="1" tooltips="1" connect="1" arrows="1" fold="1" page="1" pageScale="1" pageWidth="827" pageHeight="1169" math="0" shadow="0">
      <root>
        <mxCell id="WIyWlLk6GJQsqaUBKTNV-0" />
        <mxCell id="WIyWlLk6GJQsqaUBKTNV-1" parent="WIyWlLk6GJQsqaUBKTNV-0" />
        <mxCell id="V-uH7ZKKTgcjNKInacJp-1" value="" style="edgeStyle=orthogonalEdgeStyle;rounded=0;orthogonalLoop=1;jettySize=auto;html=1;" parent="WIyWlLk6GJQsqaUBKTNV-1" source="ByJA-jbZzqXJApsSXWde-1" target="V-uH7ZKKTgcjNKInacJp-0" edge="1">
          <mxGeometry relative="1" as="geometry" />
        </mxCell>
        <mxCell id="ByJA-jbZzqXJApsSXWde-1" value="Bắt đầu" style="ellipse;whiteSpace=wrap;html=1;" parent="WIyWlLk6GJQsqaUBKTNV-1" vertex="1">
          <mxGeometry x="310" y="160" width="100" height="70" as="geometry" />
        </mxCell>
        <mxCell id="V-uH7ZKKTgcjNKInacJp-2" style="edgeStyle=orthogonalEdgeStyle;rounded=0;orthogonalLoop=1;jettySize=auto;html=1;exitX=1;exitY=0.5;exitDx=0;exitDy=0;" parent="WIyWlLk6GJQsqaUBKTNV-1" source="ByJA-jbZzqXJApsSXWde-2" edge="1">
          <mxGeometry relative="1" as="geometry">
            <mxPoint x="360" y="240" as="targetPoint" />
            <mxPoint x="420" y="400" as="sourcePoint" />
            <Array as="points">
              <mxPoint x="515" y="370" />
              <mxPoint x="515" y="240" />
            </Array>
          </mxGeometry>
        </mxCell>
        <mxCell id="1T8XKj5W4LCH0Dszs9JZ-1" value="" style="edgeStyle=orthogonalEdgeStyle;rounded=0;orthogonalLoop=1;jettySize=auto;html=1;" edge="1" parent="WIyWlLk6GJQsqaUBKTNV-1" source="ByJA-jbZzqXJApsSXWde-2" target="ByJA-jbZzqXJApsSXWde-7">
          <mxGeometry relative="1" as="geometry" />
        </mxCell>
        <mxCell id="ByJA-jbZzqXJApsSXWde-2" value="Đúng giờ bật ?" style="rhombus;whiteSpace=wrap;html=1;" parent="WIyWlLk6GJQsqaUBKTNV-1" vertex="1">
          <mxGeometry x="300" y="330" width="120" height="80" as="geometry" />
        </mxCell>
        <mxCell id="ByJA-jbZzqXJApsSXWde-4" value="Đúng" style="text;html=1;align=center;verticalAlign=middle;whiteSpace=wrap;rounded=0;" parent="WIyWlLk6GJQsqaUBKTNV-1" vertex="1">
          <mxGeometry x="360" y="410" width="60" height="30" as="geometry" />
        </mxCell>
        <mxCell id="ByJA-jbZzqXJApsSXWde-6" value="Sai" style="text;html=1;align=center;verticalAlign=middle;whiteSpace=wrap;rounded=0;" parent="WIyWlLk6GJQsqaUBKTNV-1" vertex="1">
          <mxGeometry x="430" y="340" width="60" height="30" as="geometry" />
        </mxCell>
        <mxCell id="1T8XKj5W4LCH0Dszs9JZ-2" value="" style="edgeStyle=orthogonalEdgeStyle;rounded=0;orthogonalLoop=1;jettySize=auto;html=1;" edge="1" parent="WIyWlLk6GJQsqaUBKTNV-1" source="ByJA-jbZzqXJApsSXWde-7" target="ByJA-jbZzqXJApsSXWde-10">
          <mxGeometry relative="1" as="geometry" />
        </mxCell>
        <mxCell id="ByJA-jbZzqXJApsSXWde-7" value="Bật van" style="rounded=0;whiteSpace=wrap;html=1;" parent="WIyWlLk6GJQsqaUBKTNV-1" vertex="1">
          <mxGeometry x="320" y="450" width="80" height="40" as="geometry" />
        </mxCell>
        <mxCell id="ByJA-jbZzqXJApsSXWde-10" value="Thời gian mở &amp;gt; 5s" style="rhombus;whiteSpace=wrap;html=1;" parent="WIyWlLk6GJQsqaUBKTNV-1" vertex="1">
          <mxGeometry x="280" y="520" width="160" height="80" as="geometry" />
        </mxCell>
        <mxCell id="ByJA-jbZzqXJApsSXWde-11" value="Sai" style="text;html=1;align=center;verticalAlign=middle;whiteSpace=wrap;rounded=0;" parent="WIyWlLk6GJQsqaUBKTNV-1" vertex="1">
          <mxGeometry x="240" y="530" width="60" height="30" as="geometry" />
        </mxCell>
        <mxCell id="ByJA-jbZzqXJApsSXWde-12" value="" style="endArrow=classic;html=1;rounded=0;exitX=0;exitY=0.5;exitDx=0;exitDy=0;" parent="WIyWlLk6GJQsqaUBKTNV-1" source="ByJA-jbZzqXJApsSXWde-10" edge="1" target="ByJA-jbZzqXJApsSXWde-4">
          <mxGeometry width="50" height="50" relative="1" as="geometry">
            <mxPoint x="340" y="610" as="sourcePoint" />
            <mxPoint x="360" y="450" as="targetPoint" />
            <Array as="points">
              <mxPoint x="250" y="560" />
              <mxPoint x="250" y="425" />
              <mxPoint x="290" y="425" />
            </Array>
          </mxGeometry>
        </mxCell>
        <mxCell id="ByJA-jbZzqXJApsSXWde-13" value="Tắt đèn" style="rounded=0;whiteSpace=wrap;html=1;" parent="WIyWlLk6GJQsqaUBKTNV-1" vertex="1">
          <mxGeometry x="325" y="640" width="70" height="40" as="geometry" />
        </mxCell>
        <mxCell id="ByJA-jbZzqXJApsSXWde-14" value="" style="endArrow=classic;html=1;rounded=0;exitX=0.5;exitY=1;exitDx=0;exitDy=0;" parent="WIyWlLk6GJQsqaUBKTNV-1" source="ByJA-jbZzqXJApsSXWde-10" target="ByJA-jbZzqXJApsSXWde-13" edge="1">
          <mxGeometry width="50" height="50" relative="1" as="geometry">
            <mxPoint x="340" y="680" as="sourcePoint" />
            <mxPoint x="390" y="630" as="targetPoint" />
          </mxGeometry>
        </mxCell>
        <mxCell id="ByJA-jbZzqXJApsSXWde-15" value="Đúng" style="text;html=1;align=center;verticalAlign=middle;whiteSpace=wrap;rounded=0;" parent="WIyWlLk6GJQsqaUBKTNV-1" vertex="1">
          <mxGeometry x="350" y="600" width="60" height="30" as="geometry" />
        </mxCell>
        <mxCell id="ByJA-jbZzqXJApsSXWde-16" value="" style="endArrow=classic;html=1;rounded=0;exitX=0.5;exitY=1;exitDx=0;exitDy=0;" parent="WIyWlLk6GJQsqaUBKTNV-1" source="ByJA-jbZzqXJApsSXWde-13" edge="1">
          <mxGeometry width="50" height="50" relative="1" as="geometry">
            <mxPoint x="340" y="680" as="sourcePoint" />
            <mxPoint x="360" y="720" as="targetPoint" />
          </mxGeometry>
        </mxCell>
        <mxCell id="ByJA-jbZzqXJApsSXWde-17" value="Kết thúc" style="ellipse;whiteSpace=wrap;html=1;" parent="WIyWlLk6GJQsqaUBKTNV-1" vertex="1">
          <mxGeometry x="310" y="720" width="100" height="70" as="geometry" />
        </mxCell>
        <mxCell id="1T8XKj5W4LCH0Dszs9JZ-0" value="" style="edgeStyle=orthogonalEdgeStyle;rounded=0;orthogonalLoop=1;jettySize=auto;html=1;" edge="1" parent="WIyWlLk6GJQsqaUBKTNV-1" source="V-uH7ZKKTgcjNKInacJp-0" target="ByJA-jbZzqXJApsSXWde-2">
          <mxGeometry relative="1" as="geometry" />
        </mxCell>
        <mxCell id="V-uH7ZKKTgcjNKInacJp-0" value="Van = 0" style="rounded=0;whiteSpace=wrap;html=1;" parent="WIyWlLk6GJQsqaUBKTNV-1" vertex="1">
          <mxGeometry x="325" y="260" width="70" height="40" as="geometry" />
        </mxCell>
      </root>
    </mxGraphModel>
  </diagram>
</mxfile>
